<?xml version="1.0" encoding="UTF-8"?>
<svg id="Capa_2" data-name="Capa 2" xmlns="http://www.w3.org/2000/svg" viewBox="0 0 2800 475">
  <defs>
    <style>
      .cls-1 {
        fill: #186a6a;
      }

      .cls-2 {
        letter-spacing: .16em;
      }

      .cls-3, .cls-4 {
        fill: #010000;
      }

      .cls-5 {
        fill: none;
      }

      .cls-6 {
        letter-spacing: .16em;
      }

      .cls-4 {
        font-family: PhenomiconCondensed, 'Phenomicon Condensed';
        font-size: 66.22px;
      }

      .cls-7 {
        letter-spacing: .16em;
      }
    </style>
  </defs>
  <g id="Capa_1-2" data-name="Capa 1">
    <rect class="cls-5" width="2800" height="475"/>
    <path class="cls-3" d="m755.02,60.77c0-4.29.7-8.32,2.11-12.09,1.4-3.76,3.35-7.06,5.84-9.9,2.49-2.84,5.52-5.1,9.1-6.79,3.57-1.69,7.53-2.53,11.87-2.53s8.33.85,11.97,2.53c3.64,1.69,6.73,3.95,9.29,6.79,2.55,2.84,4.53,6.14,5.94,9.9,1.4,3.76,2.11,7.79,2.11,12.09s-.7,8.33-2.11,12.09c-1.41,3.76-3.38,7.06-5.94,9.9-2.55,2.84-5.65,5.06-9.29,6.68-3.64,1.61-7.63,2.42-11.97,2.42s-8.27-.81-11.78-2.42c-3.51-1.61-6.54-3.83-9.1-6.68-2.55-2.84-4.53-6.14-5.94-9.9-1.41-3.76-2.11-7.79-2.11-12.09Zm5.17,67h46.92v236.9h-46.92V127.76Z"/>
    <path class="cls-3" d="m873.39,291.45c4.98,2.92,10.92,6.1,17.81,9.55,6.89,3.46,14.3,6.72,22.21,9.79,7.91,3.07,16.15,5.64,24.7,7.71,8.55,2.07,17.11,3.11,25.66,3.11,20.55,0,35.49-4.14,44.81-12.43,9.32-8.29,13.98-19.72,13.98-34.3,0-7.67-1.6-14.16-4.79-19.46-3.19-5.29-7.76-9.86-13.69-13.7-5.94-3.84-13.05-7.21-21.35-10.13-8.3-2.91-17.49-5.76-27.57-8.52-5.36-1.38-11.3-2.99-17.81-4.83s-13.02-4.14-19.53-6.91-12.83-6.1-18.96-10.01c-6.13-3.91-11.56-8.67-16.28-14.27-4.72-5.6-8.52-12.09-11.39-19.45s-4.31-15.96-4.31-25.79c0-14.27,1.95-27.4,5.84-39.37,3.89-11.97,9.99-22.25,18.29-30.85,8.3-8.59,18.96-15.31,31.98-20.14,13.02-4.83,28.66-7.25,46.92-7.25,9.58,0,18.73.88,27.48,2.65,8.74,1.77,17.1,4.11,25.08,7.02,7.98,2.92,15.54,6.14,22.69,9.67,7.15,3.53,13.91,6.99,20.3,10.36l-13.4,47.89c-3.7-2.3-8.81-5.03-15.32-8.17-6.51-3.14-13.76-6.18-21.73-9.09-7.98-2.91-16.25-5.37-24.8-7.37-8.55-1.99-16.73-2.99-24.51-2.99-10.09,0-18.42,1.23-24.99,3.68-6.58,2.46-11.81,5.64-15.7,9.55-3.9,3.91-6.61,8.4-8.14,13.47-1.53,5.06-2.3,10.21-2.3,15.42,0,6.91,1.59,12.78,4.79,17.61,3.19,4.83,7.59,8.9,13.21,12.2,5.62,3.3,12.32,6.03,20.11,8.17,7.79,2.15,16.28,3.99,25.47,5.53,12.38,3.22,24.19,6.95,35.43,11.17,11.23,4.22,21.09,9.9,29.58,17.04,8.49,7.14,15.25,16.19,20.3,27.17,5.04,10.98,7.56,24.83,7.56,41.56,0,15.19-2.68,28.7-8.04,40.52-5.36,11.82-12.9,21.76-22.6,29.81-9.7,8.06-21.32,14.2-34.85,18.42-13.53,4.22-28.47,6.33-44.81,6.33-10.98,0-21.45-.88-31.4-2.65-9.96-1.77-19.28-4.11-27.96-7.02-8.68-2.91-16.66-6.21-23.94-9.9s-13.79-7.52-19.53-11.51l15.51-49.27Z"/>
    <path class="cls-3" d="m1130.61,40.28h46.53v205.13l81.19-117.65h54.57l-69.13,99.46,75.26,137.44h-55.72l-53.04-100.61-33.13,45.82v54.79h-46.53V40.28Z"/>
    <path class="cls-3" d="m1564.24,127.76l-84.26,231.61c-6.13,17.65-11.84,32-17.14,43.05-5.3,11.05-10.98,19.64-17.04,25.79-6.06,6.14-12.9,10.32-20.49,12.55-7.6,2.22-16.69,3.34-27.29,3.34h-30.83l-.19-46.04h33.7c4.08,0,7.59-1.12,10.53-3.34,2.94-2.23,5.58-5.37,7.95-9.44,2.36-4.07,4.56-8.98,6.61-14.73,2.04-5.76,4.28-12.16,6.7-19.22l-80.43-223.55h51.51l52.47,150.57,2.3,11.97,55.92-162.31,49.98-.23Z"/>
    <path class="cls-1" d="m1928.65,100.77l-15.89-8.32,8.97-24.36,15.89,8.32-8.97,24.36Zm47.4-4.25l-15.89-8.32-8.97,24.36,15.89,8.32,8.97-24.36Zm17.32,105.07c4.03-13.51,6.23-28.06,6.23-43.21,0-21.48-4.43-41.71-12.22-59.53l-20.05,54.44,5.16,2.7-53.34,144.79-27.24-14.26c-5.93,11.15-12.99,22.64-21.44,34.12-26.96,36.61-62.41,65.7-105.37,86.44-29.81,14.39-63.33,24.75-100.22,31.03h315.21v-.1c53.55-2.22,96.39-54.65,96.39-119.01,0-58.94-35.93-107.88-83.11-117.41Zm-151.4,92.81c6.4-8.5,11.87-17.02,16.57-25.34l-22.72-11.89,53.34-144.79,5.16,2.7,29.4-79.8c-10.2-3.8-21.05-5.85-32.3-5.85-56,0-102.06,50.72-107.62,115.72-15.45-16.07-35.64-25.83-57.76-25.83-42.61,0-78.13,36.14-86.18,84.1-43.51,12.88-75.75,59.74-75.75,115.58,0,32.39,10.87,61.74,28.47,83.21,112.79-3.53,198.79-40.61,249.39-107.81Z"/>
    <text class="cls-4" transform="translate(756.92 445.57)"><tspan class="cls-7" x="0" y="0">TECNOLOGÍA DE CALI</tspan><tspan class="cls-2" x="513.38" y="0">D</tspan><tspan class="cls-6" x="544.7" y="0">AD</tspan></text>
  </g>
</svg>